<mxfile host="app.diagrams.net" modified="2021-09-14T12:50:27.720Z" agent="5.0 (Windows NT 10.0; Win64; x64) AppleWebKit/537.36 (KHTML, like Gecko) Chrome/93.0.4577.63 Safari/537.36" etag="oy0r2qTZhFGv1Wwpz9H6" version="15.2.5" type="github">
  <diagram id="R2lEEEUBdFMjLlhIrx00" name="Page-1">
    <mxGraphModel dx="782" dy="746" grid="1" gridSize="10" guides="1" tooltips="1" connect="1" arrows="1" fold="1" page="1" pageScale="1" pageWidth="850" pageHeight="1100" math="0" shadow="0" extFonts="Permanent Marker^https://fonts.googleapis.com/css?family=Permanent+Marker">
      <root>
        <mxCell id="0" />
        <mxCell id="1" parent="0" />
        <mxCell id="QB4yElVCB4v4jR-u9dC9-13" value="" style="rounded=1;whiteSpace=wrap;html=1;fillColor=#e3c800;strokeColor=#B09500;fontColor=#000000;" vertex="1" parent="1">
          <mxGeometry x="50" y="490" width="750" height="190" as="geometry" />
        </mxCell>
        <mxCell id="QB4yElVCB4v4jR-u9dC9-5" value="FEC SIEMENS" style="shape=process;whiteSpace=wrap;html=1;backgroundOutline=1;" vertex="1" parent="1">
          <mxGeometry x="290" y="340" width="120" height="60" as="geometry" />
        </mxCell>
        <mxCell id="QB4yElVCB4v4jR-u9dC9-6" value="CTC - DUMMIE" style="shape=process;whiteSpace=wrap;html=1;backgroundOutline=1;" vertex="1" parent="1">
          <mxGeometry x="280" y="110" width="150" height="60" as="geometry" />
        </mxCell>
        <mxCell id="QB4yElVCB4v4jR-u9dC9-7" value="PDS" style="shape=process;whiteSpace=wrap;html=1;backgroundOutline=1;" vertex="1" parent="1">
          <mxGeometry x="310" y="530" width="120" height="60" as="geometry" />
        </mxCell>
        <mxCell id="QB4yElVCB4v4jR-u9dC9-8" value="TEST_fec-scope_04_siema_a&lt;br&gt;fec_siemens_LITUANIA&lt;br&gt;&lt;br&gt;com.indra.davinci.fecsiemens.TEST_FecSiemens&lt;br&gt;" style="text;html=1;strokeColor=#6c8ebf;fillColor=#dae8fc;align=center;verticalAlign=middle;whiteSpace=wrap;rounded=0;" vertex="1" parent="1">
          <mxGeometry x="500" y="520" width="270" height="80" as="geometry" />
        </mxCell>
        <mxCell id="QB4yElVCB4v4jR-u9dC9-9" value="fec-scope_04_siema_a&lt;br&gt;lib&lt;br&gt;&lt;br&gt;com.indra.davinci.common.app.DavinciAppManager" style="text;html=1;strokeColor=#6c8ebf;fillColor=#dae8fc;align=center;verticalAlign=middle;whiteSpace=wrap;rounded=0;" vertex="1" parent="1">
          <mxGeometry x="490" y="290" width="240" height="110" as="geometry" />
        </mxCell>
        <mxCell id="QB4yElVCB4v4jR-u9dC9-10" value="__CTC_DUMMY&lt;br&gt;__PROOF_ctc_simulator&lt;br&gt;&lt;br&gt;com.indra.davinci.ctc.proxyfec.ProxyFECDummy" style="text;html=1;strokeColor=#6c8ebf;fillColor=#dae8fc;align=center;verticalAlign=middle;whiteSpace=wrap;rounded=0;" vertex="1" parent="1">
          <mxGeometry x="470" y="120" width="280" height="60" as="geometry" />
        </mxCell>
        <mxCell id="QB4yElVCB4v4jR-u9dC9-11" value="n:\dev\wks_lg_jesus\&lt;br&gt;fec_siemens_LITUANIA\&lt;br&gt;test\&lt;br&gt;dummy-ence\resources&lt;br&gt;\config\fec_dummy\&lt;br&gt;ences\Escenario_vacio.xml" style="text;html=1;strokeColor=#d6b656;fillColor=#fff2cc;align=center;verticalAlign=middle;whiteSpace=wrap;rounded=0;" vertex="1" parent="1">
          <mxGeometry x="80" y="525" width="190" height="80" as="geometry" />
        </mxCell>
      </root>
    </mxGraphModel>
  </diagram>
</mxfile>
